<svg xmlns="http://www.w3.org/2000/svg" viewBox="0 0 240 240" role="img" aria-labelledby="title description">
  <title id="title">Orbit operating-systems learning companion</title>
  <desc id="description">An original anime-inspired owl robot with large blue eyes, a navy hood, and a glowing microchip badge.</desc>
  <defs>
    <linearGradient id="hood" x1="0" y1="0" x2="1" y2="1">
      <stop offset="0" stop-color="#1a2c66"/>
      <stop offset="1" stop-color="#512d83"/>
    </linearGradient>
    <linearGradient id="face" x1="0" y1="0" x2="0" y2="1">
      <stop offset="0" stop-color="#fff8e8"/>
      <stop offset="1" stop-color="#d7e9ff"/>
    </linearGradient>
    <radialGradient id="eye" cx="45%" cy="38%" r="62%">
      <stop offset="0" stop-color="#effcff"/>
      <stop offset="0.28" stop-color="#55d8ff"/>
      <stop offset="0.62" stop-color="#2373d9"/>
      <stop offset="1" stop-color="#10245a"/>
    </radialGradient>
    <filter id="shadow" x="-30%" y="-30%" width="160%" height="170%">
      <feDropShadow dx="0" dy="7" stdDeviation="6" flood-color="#000" flood-opacity=".35"/>
    </filter>
  </defs>
  <g filter="url(#shadow)">
    <path d="M33 176c4-40 23-67 50-81l-9-35 35 22c7-1 15-1 22 0l35-22-9 35c27 14 46 41 50 81l-20 38H53z" fill="url(#hood)" stroke="#78d8ff" stroke-width="4" stroke-linejoin="round"/>
    <path d="M64 105c8-31 28-47 56-47s48 16 56 47c-3 51-22 76-56 76s-53-25-56-76z" fill="url(#face)" stroke="#283d78" stroke-width="4"/>
    <path d="M82 91c12-12 27-14 38-5-10 4-17 11-21 21-7-6-13-11-17-16zm76 0c-12-12-27-14-38-5 10 4 17 11 21 21 7-6 13-11 17-16z" fill="#4d357d" opacity=".9"/>
    <ellipse cx="94" cy="119" rx="26" ry="29" fill="#fff" stroke="#2f4d8c" stroke-width="3"/>
    <ellipse cx="146" cy="119" rx="26" ry="29" fill="#fff" stroke="#2f4d8c" stroke-width="3"/>
    <circle cx="97" cy="121" r="16" fill="url(#eye)"/>
    <circle cx="143" cy="121" r="16" fill="url(#eye)"/>
    <circle cx="102" cy="115" r="5" fill="#fff"/>
    <circle cx="148" cy="115" r="5" fill="#fff"/>
    <circle cx="97" cy="124" r="6" fill="#07142f"/>
    <circle cx="143" cy="124" r="6" fill="#07142f"/>
    <path d="M112 139l8-8 8 8-8 9z" fill="#ffb548" stroke="#9b5a18" stroke-width="2"/>
    <path d="M96 155c15 10 33 10 48 0" fill="none" stroke="#526b9e" stroke-width="3" stroke-linecap="round"/>
    <path d="M81 173c12 11 65 11 78 0l15 41H66z" fill="#152653" opacity=".92"/>
    <rect x="101" y="174" width="38" height="38" rx="7" fill="#102040" stroke="#76ddff" stroke-width="3"/>
    <path d="M112 185h16v16h-16zm-6 3h6m16 0h6m-28 10h6m16 0h6m-19-19v6m10-6v6m-10 16v6m10-6v6" fill="none" stroke="#8ff2d4" stroke-width="3" stroke-linecap="round"/>
    <path d="M47 171c-9-3-16 1-19 8 8-1 14 2 18 9" fill="none" stroke="#78d8ff" stroke-width="5" stroke-linecap="round"/>
  </g>
</svg>
